# xmcd CD database file
#
# Track frame offsets:
#	150
#	20382
#	39163
#	53253
#	69853
#	90497
#	110536
#	133216
#	162213
#	185442
#	203254
#
# Disc length: 3013 seconds
#
# Revision: 4
# Processed by: cddbd v1.5.2PL0 Copyright (c) Steve Scherf et al.
# Submitted via: CDex 1.51
#
DISCID=7b0bc30b
DTITLE=John Lee Hooker - Blues Is The Healer  [CD 10-10]
DYEAR=2005
DGENRE=Blues
TTITLE0=Baby Baby
TTITLE1=I Feel Good
TTITLE2=Going Home
TTITLE3=We Are Cooking
TTITLE4=Looking Back Over My Day
TTITLE5=Dazie Mae
TTITLE6=Stand Back
TTITLE7=Call It The Night
TTITLE8=Roll And Rumble
TTITLE9=Bottle Of Wine
TTITLE10=Baby Don't Do Me Wrong
EXTD=YEAR: 2005
EXTT0=
EXTT1=
EXTT2=
EXTT3=
EXTT4=
EXTT5=
EXTT6=
EXTT7=
EXTT8=
EXTT9=
EXTT10=
PLAYORDER=
